<svg width="201" height="187" viewBox="0 0 201 187" fill="none" xmlns="http://www.w3.org/2000/svg">
<path d="M100.143 187C155.451 187 200.286 161.114 200.286 129.181C200.286 97.2491 155.451 71.3629 100.143 71.3629C44.8356 71.3629 0 97.2491 0 129.181C0 161.114 44.8356 187 100.143 187Z" fill="#47A992"/>
<path d="M79.4205 172.994C98.4925 172.994 113.953 164.068 113.953 153.058C113.953 142.047 98.4925 133.122 79.4205 133.122C60.3484 133.122 44.8875 142.047 44.8875 153.058C44.8875 164.068 60.3484 172.994 79.4205 172.994Z" fill="#999999"/>
<path d="M177.625 128.114L173.574 125.777C173.574 125.777 172.584 117.105 173.243 110.389C174.169 100.952 180.265 89.5943 187.533 92.2637C194.802 94.9332 184.201 104.54 181.842 112.544C179.483 120.548 177.625 128.114 177.625 128.114Z" fill="#47A992"/>
<path opacity="0.15" d="M177.625 128.114L173.574 125.777C173.574 125.777 172.584 117.105 173.243 110.389C174.169 100.952 180.265 89.5943 187.533 92.2637C194.802 94.9332 184.201 104.54 181.842 112.544C179.483 120.548 177.625 128.114 177.625 128.114Z" fill="black"/>
<path d="M175.495 127.133C175.56 127.129 175.621 127.101 175.665 127.053C175.708 127.005 175.732 126.942 175.729 126.878C175.019 105.909 185.459 95.3583 185.561 95.2563C185.607 95.21 185.633 95.1473 185.633 95.082C185.633 95.0166 185.607 94.9539 185.561 94.9077C185.539 94.8849 185.512 94.8669 185.482 94.8546C185.453 94.8422 185.421 94.8359 185.389 94.8359C185.357 94.8359 185.325 94.8422 185.296 94.8546C185.266 94.8669 185.239 94.8849 185.217 94.9077C185.106 95.0097 174.518 105.713 175.236 126.895C175.237 126.927 175.245 126.959 175.258 126.989C175.272 127.019 175.292 127.046 175.316 127.068C175.34 127.09 175.368 127.107 175.399 127.118C175.43 127.129 175.463 127.134 175.495 127.133Z" fill="#45474B"/>
<path d="M180.171 129.572L177.289 127.91C177.289 127.91 176.796 121.959 179.717 114.733C182.267 108.442 188.558 103.218 191.729 104.315C194.9 105.411 194.82 107.66 193.272 110.019C191.725 112.378 182.327 117.993 180.171 129.572Z" fill="#47A992"/>
<path d="M178.65 128.943C178.715 128.942 178.777 128.916 178.823 128.87C178.869 128.824 178.895 128.762 178.896 128.697C178.837 115.435 191.287 106.474 191.415 106.385C191.441 106.366 191.464 106.343 191.481 106.316C191.498 106.289 191.51 106.258 191.515 106.227C191.52 106.195 191.519 106.162 191.511 106.131C191.503 106.1 191.489 106.07 191.47 106.045C191.432 105.992 191.376 105.957 191.312 105.945C191.248 105.934 191.183 105.949 191.13 105.985C191.002 106.074 178.348 115.188 178.403 128.697C178.403 128.762 178.429 128.825 178.475 128.871C178.521 128.917 178.584 128.943 178.65 128.943Z" fill="#45474B"/>
<path d="M27.7357 122.907L31.4764 120.382C31.4764 120.382 33.1214 110.606 31.5911 101.981C29.4403 89.8833 21.0791 85.8621 18.1035 87.1373C15.128 88.4126 14.4904 92.0129 20.0461 98.9161C23.3405 102.976 27.621 111.643 27.7357 122.907Z" fill="#47A992"/>
<g opacity="0.15">
<path d="M27.7357 122.907L31.4764 120.382C31.4764 120.382 33.1214 110.606 31.5911 101.981C29.4403 89.8833 21.0791 85.8621 18.1035 87.1373C15.128 88.4126 14.4904 92.0129 20.0461 98.9161C23.3405 102.976 27.621 111.643 27.7357 122.907Z" fill="black"/>
</g>
<path d="M29.0191 118.061H28.9808C28.9426 118.059 28.9053 118.049 28.8714 118.031C28.8375 118.013 28.8078 117.988 28.7841 117.958C28.7604 117.928 28.7434 117.893 28.734 117.856C28.7247 117.819 28.7234 117.78 28.73 117.743C30.0817 106.355 25.2742 93.9938 20.0415 89.0757C19.9911 89.0247 19.9629 88.956 19.9629 88.8844C19.9629 88.8128 19.9911 88.744 20.0415 88.6931C20.0664 88.6677 20.0962 88.6474 20.129 88.6336C20.1619 88.6198 20.1971 88.6127 20.2328 88.6127C20.2684 88.6127 20.3037 88.6198 20.3365 88.6336C20.3694 88.6474 20.3991 88.6677 20.4241 88.6931C25.7545 93.7005 30.6513 106.266 29.2826 117.819C29.2746 117.884 29.2437 117.944 29.1954 117.989C29.1471 118.033 29.0846 118.059 29.0191 118.061Z" fill="#45474B"/>
<path d="M17.9419 129.513C17.3468 129.87 15.6125 128.582 15.1321 128.272C14.3089 127.734 13.6384 126.993 13.1853 126.121C12.677 125.131 12.4884 124.009 12.6455 122.907C12.7325 122.333 12.8589 121.764 13.0238 121.207C13.1725 120.65 13.3213 120.093 13.4488 119.532C13.6374 118.986 13.7098 118.407 13.6614 117.832C13.4956 116.697 12.4712 115.919 11.536 115.252C10.5073 114.508 9.41064 113.526 9.41064 112.157C9.46308 111.082 9.87468 110.055 10.5796 109.241C11.2172 108.391 11.9823 107.651 12.5562 106.763C13.0049 106.147 13.2339 105.399 13.2066 104.638C13.1327 104.168 12.965 103.719 12.7135 103.316C12.2119 102.431 11.5615 101.615 11.2087 100.676C10.8559 99.7365 10.8814 98.5293 11.6338 97.8279C12.2331 97.2541 13.147 97.1606 13.9759 97.1988C14.757 97.2766 15.5115 97.5247 16.1863 97.9257C18.384 99.0947 19.6762 101.645 22.0013 102.534C22.8982 102.874 23.8759 102.933 24.8068 103.163C25.7377 103.392 26.6984 103.847 27.1447 104.693C28.0246 106.372 26.4901 108.489 27.1192 110.27C27.6803 111.851 29.2446 112.429 30.1288 113.845C30.4876 114.473 30.6365 115.2 30.5538 115.919C30.504 117.133 30.2316 118.327 29.7504 119.443C29.197 120.6 28.5724 121.721 27.8801 122.801C27.8801 122.801 18.0311 129.458 17.9419 129.513Z" fill="#47A992"/>
<path d="M23.6891 125.989C23.6533 125.989 23.6181 125.981 23.5853 125.967C23.5525 125.953 23.5228 125.932 23.4979 125.906C23.4731 125.881 23.4535 125.85 23.4404 125.817C23.4272 125.784 23.4207 125.749 23.4213 125.713C23.6593 114.95 18.3629 103.184 14.6137 99.7833C14.5605 99.7352 14.5283 99.668 14.5243 99.5964C14.5204 99.5247 14.5449 99.4544 14.5925 99.4007C14.6174 99.3753 14.6472 99.3551 14.68 99.3413C14.7129 99.3275 14.7481 99.3203 14.7838 99.3203C14.8194 99.3203 14.8547 99.3275 14.8875 99.3413C14.9204 99.3551 14.9501 99.3753 14.9751 99.4007C18.8007 102.844 24.2034 114.814 23.9611 125.726C23.9606 125.761 23.9531 125.795 23.9391 125.828C23.9252 125.86 23.905 125.889 23.8797 125.914C23.8544 125.938 23.8246 125.957 23.7919 125.97C23.7592 125.983 23.7242 125.99 23.6891 125.989Z" fill="#45474B"/>
<path d="M21.7035 112.876C21.6784 112.882 21.6521 112.882 21.627 112.876C18.1499 111.872 13.8396 111.77 13.7971 111.766C13.7616 111.766 13.7265 111.758 13.694 111.744C13.6614 111.729 13.632 111.709 13.6075 111.683C13.5829 111.657 13.5638 111.627 13.5511 111.594C13.5384 111.561 13.5325 111.525 13.5336 111.49C13.5329 111.454 13.5397 111.418 13.5535 111.385C13.5673 111.352 13.5879 111.322 13.6139 111.297C13.6398 111.273 13.6707 111.254 13.7044 111.241C13.7382 111.229 13.7741 111.224 13.8099 111.226C13.8524 111.226 18.2307 111.333 21.7758 112.353C21.8443 112.373 21.9019 112.42 21.9361 112.483C21.9703 112.546 21.9784 112.62 21.9586 112.689C21.942 112.743 21.9082 112.791 21.8622 112.825C21.8162 112.858 21.7605 112.876 21.7035 112.876Z" fill="#45474B"/>
<path d="M121.89 115.507L120.279 114.576C120.011 114.402 119.787 114.166 119.627 113.889C119.467 113.612 119.374 113.301 119.357 112.982V46.0242C119.374 45.7051 119.467 45.3947 119.626 45.1178C119.786 44.841 120.008 44.6054 120.275 44.4302L165.057 18.5771C165.342 18.4326 165.657 18.3573 165.977 18.3573C166.297 18.3573 166.612 18.4326 166.897 18.5771L168.508 19.5081C168.777 19.6823 169 19.9176 169.16 20.1946C169.321 20.4716 169.413 20.7825 169.431 21.1021V88.0598C169.413 88.3788 169.321 88.6892 169.161 88.9661C169.002 89.243 168.78 89.4785 168.512 89.6538L123.731 115.511C123.446 115.656 123.13 115.731 122.81 115.73C122.49 115.73 122.175 115.653 121.89 115.507Z" fill="#455A64"/>
<path d="M169.43 20.9533C169.366 20.4772 168.98 20.3029 168.516 20.5707L123.73 46.428C123.46 46.5979 123.236 46.8333 123.08 47.1124L119.624 45.1188C119.779 44.8376 120.003 44.6005 120.275 44.4301L165.056 18.5771C165.341 18.4326 165.657 18.3573 165.976 18.3573C166.296 18.3573 166.612 18.4326 166.897 18.5771L168.508 19.5081C168.757 19.6682 168.968 19.8803 169.127 20.1298C169.286 20.3792 169.39 20.6602 169.43 20.9533Z" fill="#455A64"/>
<path d="M123.574 115.583C123.301 115.693 123.009 115.744 122.716 115.732C122.422 115.719 122.135 115.644 121.873 115.511L120.258 114.576C119.991 114.401 119.769 114.165 119.609 113.888C119.45 113.611 119.357 113.301 119.34 112.982V46.0242C119.351 45.7045 119.443 45.3929 119.608 45.1187L123.063 47.1123C122.896 47.3869 122.802 47.7003 122.791 48.022V114.98C122.808 115.507 123.14 115.749 123.574 115.583Z" fill="#263238"/>
<path d="M122.808 48.0305V114.98C122.808 115.566 123.233 115.804 123.73 115.511L168.512 89.6538C168.779 89.4785 169.001 89.243 169.161 88.9661C169.32 88.6892 169.412 88.3788 169.43 88.0597V21.1021C169.43 20.5155 169.005 20.2774 168.512 20.5707L123.73 46.428C123.461 46.6031 123.237 46.8397 123.076 47.1182C122.916 47.3968 122.824 47.7095 122.808 48.0305Z" fill="#37474F"/>
<path d="M112.351 73.5349C111.773 73.1906 109.091 71.6646 108.95 71.5838C108.841 71.5186 108.748 71.4297 108.678 71.3236C108.607 71.2175 108.562 71.097 108.544 70.9709C108.526 70.8449 108.537 70.7165 108.576 70.5952C108.615 70.474 108.68 70.3629 108.768 70.2704L119.356 58.9124L122.808 60.8932L112.224 72.2597C112.14 72.3482 112.077 72.4535 112.038 72.5685C111.999 72.6835 111.985 72.8055 111.997 72.9263C112.009 73.0471 112.047 73.164 112.108 73.269C112.169 73.3739 112.252 73.4646 112.351 73.5349Z" fill="#455A64"/>
<path d="M122.808 60.906L112.224 72.2598C112.106 72.3853 112.029 72.5435 112.004 72.7135C111.978 72.8835 112.004 73.0573 112.079 73.212C112.154 73.3667 112.274 73.495 112.424 73.58C112.573 73.665 112.745 73.7027 112.916 73.688L122.808 72.8719V60.906Z" fill="#37474F"/>
<path d="M146.119 40.4642C151.339 37.4504 155.568 39.8946 155.568 45.9221C155.568 51.9497 151.339 59.2737 146.119 62.2875C140.899 65.3013 136.67 62.8571 136.67 56.8338C136.67 50.8105 140.899 43.478 146.119 40.4642Z" fill="#47A992"/>
<path d="M146.051 45.208C147.752 44.2304 149.116 45.021 149.116 46.9763C149.058 48.0392 148.75 49.0735 148.218 49.9952C147.685 50.917 146.943 51.7002 146.051 52.2813C144.351 53.2589 142.982 52.4683 142.982 50.513C143.041 49.4497 143.349 48.4152 143.882 47.4934C144.415 46.5717 145.159 45.7887 146.051 45.208Z" fill="#45474B"/>
<path d="M152.095 55.6309C152.095 52.4216 149.838 51.1166 147.058 52.7234L145.32 53.7265C142.54 55.3333 140.282 59.2525 140.282 62.4533V63.3332C140.807 63.501 141.355 63.5856 141.906 63.584C143.398 63.5333 144.85 63.0937 146.119 62.3088C148.535 60.8204 150.579 58.7994 152.095 56.4003V55.6309Z" fill="#45474B"/>
<path d="M140.134 92.1235L152.104 85.2118C152.614 84.9185 153.026 85.1565 153.026 85.7431V89.5985C153.009 89.9181 152.916 90.229 152.756 90.506C152.596 90.783 152.372 91.0183 152.104 91.1925L140.134 98.1042C139.624 98.3975 139.211 98.1595 139.211 97.5729V93.7175C139.229 93.3979 139.321 93.087 139.482 92.81C139.642 92.533 139.865 92.2977 140.134 92.1235Z" fill="#47A992"/>
<path d="M134.272 83.5115L157.953 69.8326C158.561 69.4798 159.058 69.7646 159.058 70.4702V71.9027C159.037 72.286 158.926 72.659 158.734 72.9913C158.542 73.3237 158.274 73.6061 157.953 73.8155L134.259 87.4944C133.651 87.8472 133.158 87.5624 133.158 86.8568V85.437C133.178 85.0507 133.289 84.6745 133.482 84.3397C133.676 84.0048 133.947 83.7209 134.272 83.5115Z" fill="#45474B"/>
<path d="M137.044 73.6115C137.367 73.4244 137.618 73.3947 137.796 73.5265C137.975 73.6582 138.064 73.9515 138.064 74.4021C138.073 74.8134 137.981 75.2206 137.796 75.5881C137.629 75.9203 137.367 76.1954 137.044 76.3787L136.406 76.7485V78.1215C136.405 78.1688 136.393 78.2152 136.372 78.2575C136.357 78.296 136.33 78.3287 136.296 78.3511L135.973 78.5381C135.961 78.5464 135.948 78.5508 135.934 78.5508C135.92 78.5508 135.907 78.5464 135.896 78.5381C135.873 78.5093 135.862 78.4727 135.866 78.4361V74.4616C135.866 74.4146 135.876 74.3681 135.896 74.3256C135.912 74.2878 135.939 74.2554 135.973 74.2321L137.044 73.6115ZM136.406 75.9791L137.022 75.6221C137.171 75.5381 137.297 75.4183 137.388 75.2735C137.485 75.1028 137.532 74.9085 137.524 74.7124C137.524 74.4829 137.477 74.3511 137.388 74.3128C137.325 74.2975 137.259 74.2968 137.196 74.3108C137.132 74.3248 137.073 74.3531 137.022 74.3936L136.406 74.7507V75.9791Z" fill="#45474B"/>
<path d="M139.845 71.9919C139.887 71.9664 139.921 71.9664 139.943 71.9919C139.97 72.03 139.989 72.0735 139.998 72.1194L140.98 75.4435C140.98 75.4435 140.98 75.469 140.98 75.4818C140.979 75.5291 140.968 75.5757 140.946 75.6178C140.931 75.6563 140.904 75.689 140.869 75.7113L140.58 75.8771C140.529 75.9069 140.491 75.9111 140.47 75.8771C140.449 75.8557 140.435 75.8294 140.427 75.8006L140.253 75.2182L138.978 75.9494L138.808 76.7315C138.796 76.7738 138.78 76.8151 138.761 76.8548C138.74 76.9066 138.701 76.9489 138.65 76.9738L138.361 77.1396C138.351 77.1486 138.337 77.1535 138.323 77.1535C138.309 77.1535 138.296 77.1486 138.285 77.1396C138.263 77.1121 138.252 77.077 138.255 77.0418C138.253 77.0263 138.253 77.0105 138.255 76.995L139.233 72.5403C139.245 72.4748 139.263 72.4107 139.288 72.349C139.309 72.3043 139.343 72.2672 139.386 72.2427L139.845 71.9919ZM140.066 74.5679L139.641 73.0674L139.216 75.0737L140.066 74.5679Z" fill="#45474B"/>
<path d="M142.468 70.4149C142.61 70.3251 142.772 70.2712 142.94 70.2576C143.058 70.247 143.177 70.2737 143.28 70.3341C143.373 70.3947 143.446 70.4822 143.488 70.5849C143.534 70.6896 143.56 70.8021 143.564 70.9165C143.567 70.9637 143.557 71.0108 143.535 71.0525C143.52 71.091 143.493 71.1237 143.458 71.146L143.178 71.3076C143.131 71.3331 143.097 71.3373 143.076 71.3076C143.049 71.2902 143.028 71.2669 143.012 71.2396C142.995 71.2013 142.97 71.1669 142.94 71.1384C142.909 71.1099 142.873 71.0879 142.833 71.0738C142.704 71.0552 142.572 71.0889 142.468 71.1673C142.399 71.2117 142.334 71.2615 142.272 71.3161C142.209 71.3741 142.153 71.4398 142.106 71.5116C142.061 71.5808 142.024 71.655 141.996 71.7326C141.971 71.8066 141.958 71.8841 141.958 71.9622C141.953 72.0337 141.966 72.1054 141.996 72.1705C142.009 72.1933 142.027 72.2126 142.05 72.2267C142.072 72.2407 142.097 72.2492 142.124 72.2512C142.202 72.2649 142.283 72.2649 142.362 72.2512L142.731 72.1705C142.869 72.1296 143.013 72.1124 143.156 72.1195C143.259 72.1191 143.359 72.1519 143.441 72.213C143.519 72.2784 143.575 72.3658 143.603 72.4638C143.644 72.6015 143.663 72.7451 143.658 72.8888C143.658 73.0787 143.631 73.2677 143.577 73.4499C143.525 73.6374 143.45 73.8174 143.352 73.9855C143.249 74.1579 143.126 74.3177 142.986 74.4616C142.843 74.6099 142.68 74.7372 142.502 74.8399C142.371 74.9196 142.227 74.9758 142.077 75.0057C141.954 75.0292 141.828 75.0189 141.711 74.976C141.605 74.9266 141.517 74.8447 141.46 74.7422C141.391 74.611 141.353 74.4655 141.35 74.3171C141.349 74.2687 141.36 74.2208 141.38 74.1768C141.398 74.1406 141.426 74.1099 141.46 74.0875L141.741 73.926C141.783 73.9005 141.817 73.892 141.843 73.9048C141.868 73.9175 141.885 73.9388 141.902 73.977C141.92 74.0208 141.943 74.0622 141.97 74.1003C141.997 74.1373 142.034 74.1655 142.077 74.1811C142.133 74.194 142.191 74.194 142.247 74.1811C142.337 74.1598 142.423 74.1239 142.502 74.0748C142.584 74.0278 142.662 73.9738 142.736 73.9133C142.879 73.8001 142.992 73.6544 143.067 73.4882C143.101 73.403 143.119 73.3121 143.118 73.2204C143.122 73.1871 143.119 73.1533 143.11 73.1212C143.1 73.089 143.084 73.0591 143.063 73.0334C143.04 73.0131 143.013 72.9981 142.983 72.9893C142.954 72.9805 142.923 72.9781 142.893 72.9824C142.796 72.9863 142.701 73.002 142.608 73.0291C142.498 73.0546 142.37 73.0844 142.221 73.1099C142.107 73.1384 141.99 73.147 141.873 73.1354C141.781 73.1295 141.694 73.0919 141.626 73.0291C141.553 72.9571 141.501 72.8657 141.477 72.7656C141.443 72.6179 141.427 72.4665 141.431 72.315C141.43 72.1278 141.458 71.9416 141.511 71.7624C141.562 71.5779 141.636 71.4008 141.732 71.2353C141.824 71.071 141.936 70.9183 142.064 70.7805C142.181 70.6401 142.317 70.517 142.468 70.4149Z" fill="#45474B"/>
<path d="M145.261 68.8081C145.402 68.7156 145.564 68.66 145.733 68.6466C145.851 68.6365 145.97 68.6632 146.073 68.7231C146.163 68.7852 146.234 68.8723 146.277 68.9739C146.323 69.0785 146.349 69.1911 146.353 69.3055C146.358 69.3528 146.348 69.4005 146.323 69.4415C146.308 69.4799 146.282 69.5127 146.247 69.535L145.966 69.6965C145.924 69.722 145.89 69.7305 145.864 69.6965C145.837 69.6795 145.816 69.6541 145.805 69.6243C145.766 69.5497 145.701 69.4921 145.622 69.4627C145.559 69.4534 145.494 69.4569 145.432 69.473C145.37 69.489 145.312 69.5173 145.261 69.5562C145.19 69.5996 145.123 69.6494 145.061 69.705C144.999 69.7632 144.945 69.8289 144.899 69.9006C144.852 69.9688 144.815 70.0432 144.789 70.1216C144.762 70.1953 144.748 70.2728 144.746 70.3511C144.741 70.4227 144.754 70.4943 144.785 70.5594C144.798 70.5822 144.816 70.6015 144.838 70.6156C144.861 70.6297 144.886 70.6381 144.912 70.6402C144.991 70.6539 145.071 70.6539 145.15 70.6402L145.52 70.5594C145.658 70.5209 145.802 70.5037 145.945 70.5084C146.048 70.5075 146.148 70.5403 146.23 70.6019C146.308 70.6683 146.365 70.7552 146.396 70.8527C146.433 70.9912 146.45 71.1344 146.447 71.2778C146.446 71.4677 146.419 71.6566 146.366 71.8389C146.314 72.0263 146.238 72.2063 146.141 72.3745C146.038 72.5485 145.915 72.7097 145.775 72.8548C145.631 72.9994 145.47 73.1252 145.295 73.2289C145.164 73.3083 145.02 73.3644 144.87 73.3947C144.749 73.4178 144.624 73.4075 144.508 73.3649C144.4 73.3171 144.31 73.2349 144.253 73.1311C144.183 73.0003 144.147 72.8543 144.147 72.706C144.142 72.6587 144.152 72.611 144.177 72.57C144.192 72.5315 144.219 72.4988 144.253 72.4765L144.534 72.315C144.576 72.2895 144.615 72.281 144.636 72.2937C144.651 72.3004 144.664 72.3104 144.674 72.3229C144.684 72.3355 144.692 72.3502 144.695 72.366C144.715 72.4089 144.737 72.4501 144.763 72.4893C144.791 72.5266 144.83 72.5547 144.874 72.57C144.93 72.5829 144.988 72.5829 145.044 72.57C145.134 72.5487 145.22 72.5128 145.299 72.4637C145.379 72.4157 145.456 72.3617 145.528 72.3022C145.603 72.244 145.669 72.1752 145.724 72.0982C145.779 72.0248 145.825 71.9448 145.86 71.8601C145.894 71.775 145.911 71.6841 145.911 71.5923C145.915 71.5591 145.912 71.5253 145.903 71.4931C145.893 71.461 145.877 71.4311 145.856 71.4053C145.833 71.3851 145.806 71.37 145.776 71.3612C145.747 71.3524 145.716 71.35 145.686 71.3543C145.591 71.3601 145.497 71.3758 145.405 71.4011C145.295 71.4266 145.163 71.4563 145.018 71.4818C144.903 71.5103 144.784 71.5189 144.666 71.5073C144.573 71.5025 144.486 71.4648 144.419 71.4011C144.347 71.3287 144.297 71.2373 144.275 71.1375C144.237 70.9919 144.22 70.8416 144.223 70.6912C144.225 70.5028 144.252 70.3154 144.304 70.1343C144.357 69.9505 144.431 69.7736 144.525 69.6072C144.617 69.4419 144.73 69.289 144.861 69.1524C144.976 69.0176 145.11 68.9014 145.261 68.8081Z" fill="#45474B"/>
<path d="M148.359 69.3395L148.015 71.3756C148.005 71.4369 147.988 71.4968 147.964 71.5541C147.947 71.6 147.916 71.6389 147.875 71.6647L147.551 71.8517C147.509 71.8772 147.479 71.8772 147.458 71.8517C147.429 71.8168 147.413 71.7735 147.411 71.7284L146.901 68.1366C146.901 68.1366 146.901 68.1026 146.901 68.0898C146.902 68.0425 146.914 67.9961 146.935 67.9538C146.951 67.916 146.978 67.8835 147.012 67.8603L147.305 67.6902C147.329 67.6803 147.357 67.6803 147.381 67.6902C147.407 67.6902 147.424 67.7242 147.432 67.7922L147.768 70.2109L148.062 68.3959C148.069 68.3506 148.082 68.3064 148.1 68.2641C148.117 68.2103 148.153 68.1648 148.202 68.1366L148.529 67.9453C148.576 67.9198 148.61 67.924 148.631 67.9453C148.65 67.9723 148.663 68.0026 148.669 68.0345L148.967 69.5095L149.303 66.7041C149.307 66.6489 149.323 66.5952 149.35 66.5468C149.369 66.515 149.395 66.4876 149.426 66.466L149.719 66.296C149.73 66.2877 149.744 66.2832 149.758 66.2832C149.771 66.2832 149.785 66.2877 149.796 66.296C149.808 66.3099 149.817 66.3261 149.823 66.3436C149.829 66.3611 149.831 66.3796 149.83 66.398C149.832 66.415 149.832 66.432 149.83 66.449L149.32 70.6275C149.311 70.6886 149.296 70.7486 149.273 70.806C149.254 70.8514 149.221 70.8899 149.18 70.9165L148.852 71.1036C148.814 71.1248 148.784 71.1248 148.763 71.1036C148.741 71.0645 148.724 71.0232 148.712 70.9803L148.359 69.3395Z" fill="#45474B"/>
<path d="M150.349 67.5372C150.359 67.3015 150.387 67.0669 150.434 66.8358C150.483 66.6099 150.557 66.3903 150.655 66.1812C150.749 65.9779 150.869 65.7878 151.012 65.6158C151.158 65.4452 151.332 65.3014 151.527 65.1907C151.676 65.0891 151.852 65.0317 152.033 65.025C152.168 65.0264 152.297 65.0797 152.394 65.1737C152.497 65.2895 152.571 65.4278 152.611 65.5776C152.666 65.7728 152.696 65.9742 152.7 66.1769C152.7 66.2534 152.7 66.3384 152.7 66.432C152.7 66.5255 152.7 66.6232 152.7 66.7253C152.7 66.8273 152.7 66.925 152.7 67.0186C152.7 67.1121 152.7 67.2013 152.7 67.2821C152.691 67.5164 152.662 67.7496 152.615 67.9792C152.566 68.2044 152.493 68.4238 152.398 68.6338C152.302 68.8365 152.18 69.0264 152.037 69.1992C151.892 69.3682 151.719 69.5118 151.527 69.6243C151.374 69.7251 151.196 69.7824 151.012 69.79C150.946 69.7914 150.88 69.7793 150.819 69.7544C150.758 69.7296 150.702 69.6925 150.655 69.6455C150.544 69.5265 150.468 69.3796 150.434 69.2204C150.384 69.0245 150.355 68.8234 150.349 68.6211C150.349 68.5446 150.349 68.4596 150.349 68.366C150.349 68.2725 150.349 68.1748 150.349 68.0727C150.349 67.9707 150.349 67.8772 150.349 67.7794C150.349 67.6817 150.345 67.6137 150.349 67.5372ZM152.16 66.5212C152.17 66.4172 152.158 66.3124 152.126 66.213C152.094 66.1137 152.042 66.0219 151.973 65.9431C151.863 65.8454 151.71 65.8496 151.527 65.9431C151.328 66.0597 151.171 66.235 151.076 66.4447C150.956 66.6925 150.892 66.964 150.889 67.2396C150.889 67.3969 150.889 67.5712 150.889 67.7624C150.889 67.9537 150.889 68.1238 150.889 68.2768C150.88 68.3808 150.891 68.4856 150.924 68.585C150.956 68.6843 151.008 68.7761 151.076 68.8549C151.187 68.9484 151.34 68.9399 151.527 68.8336C151.722 68.7162 151.877 68.543 151.973 68.3363C152.094 68.09 152.158 67.8199 152.16 67.5457C152.16 67.3841 152.16 67.2098 152.16 67.0186C152.16 66.8273 152.164 66.6743 152.16 66.5212Z" fill="#45474B"/>
<path d="M154.553 63.4947C154.889 63.3034 155.14 63.2737 155.314 63.4139C155.417 63.5277 155.494 63.663 155.539 63.81C155.584 63.9569 155.595 64.112 155.573 64.2641C155.577 64.5528 155.532 64.8401 155.441 65.1142C155.355 65.3696 155.221 65.6062 155.046 65.8114L155.599 67.0143C155.6 67.0341 155.6 67.054 155.599 67.0738C155.599 67.1121 155.59 67.15 155.573 67.1843C155.561 67.2152 155.541 67.2419 155.514 67.2609L155.174 67.4564C155.118 67.4861 155.08 67.4904 155.055 67.4564C155.032 67.4341 155.013 67.4082 154.999 67.3799L154.476 66.2449L153.945 66.551V67.9877C153.945 68.0347 153.935 68.0812 153.915 68.1238C153.898 68.1607 153.872 68.1928 153.839 68.2173L153.516 68.4043C153.505 68.4133 153.491 68.4182 153.477 68.4182C153.464 68.4182 153.45 68.4133 153.439 68.4043C153.427 68.3913 153.418 68.3759 153.412 68.359C153.406 68.3422 153.404 68.3243 153.405 68.3065V64.3321C153.406 64.2848 153.418 64.2384 153.439 64.1961C153.454 64.1576 153.481 64.1249 153.516 64.1026L154.553 63.4947ZM153.954 65.7816L154.553 65.4585C154.699 65.3768 154.825 65.2618 154.918 65.1227C155.017 64.9589 155.064 64.7695 155.055 64.5786C155.055 64.3491 155.008 64.2216 154.918 64.1961C154.789 64.1785 154.658 64.212 154.553 64.2896L153.975 64.6211L153.954 65.7816Z" fill="#45474B"/>
<path d="M157.401 61.8582C157.555 61.7575 157.731 61.6962 157.915 61.6796C158.048 61.6747 158.178 61.722 158.276 61.8114C158.389 61.9298 158.467 62.0768 158.501 62.2365C158.559 62.4473 158.59 62.6642 158.595 62.8826C158.595 63.1801 158.595 63.4862 158.595 63.7965C158.586 64.0496 158.555 64.3014 158.501 64.5489C158.453 64.7789 158.379 65.0027 158.28 65.2163C158.186 65.4124 158.065 65.5953 157.923 65.7604C157.781 65.9293 157.612 66.0731 157.422 66.1854L156.414 66.7338C156.404 66.7428 156.39 66.7477 156.376 66.7477C156.362 66.7477 156.349 66.7428 156.338 66.7338C156.325 66.7209 156.316 66.7055 156.31 66.6886C156.304 66.6717 156.302 66.6538 156.304 66.636V62.6616C156.305 62.6143 156.317 62.5678 156.338 62.5255C156.353 62.4871 156.38 62.4543 156.414 62.432L157.401 61.8582ZM158.055 63.1801C158.053 63.065 158.036 62.9507 158.004 62.8401C157.984 62.7564 157.942 62.6799 157.881 62.6191C157.854 62.5924 157.822 62.5714 157.787 62.5575C157.752 62.5437 157.715 62.5371 157.677 62.5383C157.57 62.5454 157.468 62.5806 157.379 62.6403L156.844 62.9464V65.7178L157.401 65.399C157.508 65.3363 157.604 65.2558 157.685 65.161C157.764 65.0678 157.832 64.9649 157.885 64.8549C157.938 64.7378 157.978 64.6152 158.004 64.4894C158.034 64.3581 158.051 64.2243 158.055 64.0898C158.068 63.7795 158.068 63.4777 158.055 63.1801Z" fill="#45474B"/>
<path d="M99.0296 0.162924C99.7633 0.326186 100.47 0.592367 101.129 0.953562C101.761 1.29289 102.326 1.74199 102.8 2.27979C103.253 2.79713 103.59 3.40606 103.786 4.0651C103.987 4.77057 104.001 5.51593 103.829 6.22873C103.715 6.79387 103.491 7.33113 103.17 7.81001C102.877 8.21951 102.528 8.58582 102.133 8.8982C101.745 9.19937 101.331 9.46539 100.896 9.69309L99.6715 10.3434C99.3027 10.5358 98.9526 10.7621 98.6258 11.0193C98.3301 11.2461 98.1034 11.5508 97.9712 11.8992C97.9064 12.0584 97.7991 12.1966 97.6609 12.2988C97.5955 12.3496 97.5194 12.3848 97.4384 12.4017C97.3574 12.4187 97.2735 12.4169 97.1933 12.3966L95.391 11.997C95.3042 11.9788 95.2219 11.9435 95.1489 11.8931C95.0759 11.8428 95.0137 11.7784 94.9659 11.7037C94.915 11.6343 94.8812 11.5538 94.8672 11.4689C94.8531 11.384 94.8593 11.297 94.8852 11.2149C95.0303 10.6567 95.2861 10.1334 95.6375 9.67608C95.9582 9.27157 96.3296 8.91011 96.7427 8.60065C97.1452 8.30603 97.5718 8.04581 98.018 7.82276C98.443 7.60597 98.8681 7.39768 99.2379 7.1894C99.5819 7.00449 99.9054 6.78364 100.203 6.53053C100.464 6.31204 100.645 6.01297 100.717 5.68039C100.785 5.39158 100.781 5.0907 100.707 4.80348C100.633 4.51626 100.491 4.25124 100.292 4.0311C99.7951 3.48841 99.1306 3.12776 98.4048 3.00667C97.0615 2.70912 95.928 3.16111 95.0042 4.36266C94.915 4.49381 94.8026 4.60761 94.6726 4.69847C94.5259 4.7712 94.3564 4.78341 94.2008 4.73247L92.2837 4.3074C92.147 4.28098 92.0262 4.20151 91.9479 4.08636C91.9061 4.02483 91.878 3.95503 91.8655 3.88169C91.853 3.80834 91.8565 3.73317 91.8756 3.66128C92.0386 3.07062 92.3419 2.52811 92.7598 2.08001C93.2311 1.56034 93.791 1.12855 94.4133 0.804787C95.0938 0.448744 95.8273 0.204737 96.5855 0.0821605C97.3977 -0.0499569 98.2279 -0.0225248 99.0296 0.162924ZM96.9935 13.8418C97.1621 13.8814 97.3086 13.9854 97.4015 14.1316C97.4945 14.2777 97.5265 14.4545 97.4909 14.6239L97.0318 16.7068C97.0162 16.794 96.9825 16.877 96.9326 16.9502C96.8828 17.0235 96.8181 17.0854 96.7427 17.1319C96.6716 17.1809 96.591 17.2146 96.5061 17.2307C96.4212 17.2468 96.3338 17.245 96.2496 17.2254L94.1923 16.7536C94.1048 16.7388 94.0215 16.7054 93.9482 16.6555C93.8748 16.6056 93.8131 16.5404 93.7672 16.4645C93.7196 16.3927 93.6871 16.312 93.6717 16.2272C93.6564 16.1424 93.6585 16.0554 93.6779 15.9714L94.1413 13.8886C94.1809 13.7197 94.2847 13.5729 94.4307 13.4793C94.5767 13.3857 94.7534 13.3526 94.9234 13.387L96.9935 13.8418Z" fill="#47A992"/>
<path d="M101.299 20.1032C101.811 20.0211 102.332 20.011 102.847 20.0734C103.338 20.1318 103.816 20.2757 104.258 20.4985C104.679 20.7169 105.05 21.021 105.346 21.3911C105.613 21.7534 105.8 22.1676 105.897 22.6069C105.994 23.0462 105.997 23.5009 105.907 23.9416C105.826 24.2804 105.696 24.6055 105.52 24.9065C105.351 25.1992 105.155 25.4753 104.934 25.7311C104.717 25.9862 104.509 26.2285 104.317 26.4623C104.13 26.6801 103.964 26.9149 103.82 27.1636C103.685 27.3817 103.617 27.6343 103.624 27.8905C103.621 28.0103 103.587 28.1272 103.527 28.2306C103.496 28.2782 103.455 28.3188 103.408 28.3496C103.36 28.3804 103.307 28.4007 103.25 28.4091L101.975 28.6131C101.916 28.624 101.854 28.6228 101.795 28.6096C101.736 28.5965 101.68 28.5717 101.631 28.5366C101.581 28.5051 101.539 28.462 101.508 28.411C101.478 28.36 101.46 28.3025 101.457 28.2433C101.403 27.8478 101.432 27.4455 101.542 27.0616C101.642 26.7218 101.784 26.3962 101.967 26.0925C102.145 25.801 102.35 25.5264 102.579 25.2721C102.804 25.017 103.004 24.779 103.199 24.5494C103.374 24.3444 103.525 24.1206 103.65 23.8821C103.761 23.6768 103.801 23.4409 103.765 23.2105C103.733 23.0077 103.652 22.8156 103.53 22.6506C103.408 22.4855 103.248 22.3524 103.063 22.2625C102.606 22.0418 102.089 21.979 101.593 22.084C101.143 22.1497 100.725 22.3529 100.395 22.6657C100.066 22.9785 99.8411 23.3855 99.7521 23.8311C99.7272 23.9382 99.684 24.0403 99.6245 24.1329C99.5487 24.2136 99.4458 24.2635 99.3355 24.2731L97.9923 24.4899C97.8978 24.508 97.8001 24.4881 97.7202 24.4347C97.6793 24.4065 97.6448 24.37 97.6192 24.3275C97.5935 24.285 97.5772 24.2374 97.5714 24.1881C97.5315 23.7663 97.5972 23.3412 97.7627 22.9512C97.9308 22.4973 98.1784 22.077 98.4938 21.7099C98.8396 21.308 99.2471 20.9637 99.7011 20.6898C100.191 20.3927 100.734 20.1935 101.299 20.1032ZM103.493 29.391C103.551 29.3817 103.611 29.3841 103.669 29.398C103.726 29.4118 103.781 29.4369 103.829 29.4718C103.879 29.5047 103.921 29.5479 103.953 29.5984C103.986 29.649 104.007 29.7058 104.016 29.7651L104.254 31.2231C104.272 31.3414 104.243 31.4621 104.173 31.5592C104.103 31.6563 103.998 31.7219 103.88 31.7417L102.456 31.9755C102.337 31.9938 102.217 31.9647 102.12 31.8947C102.07 31.8614 102.029 31.818 101.997 31.7675C101.966 31.717 101.945 31.6604 101.937 31.6014L101.699 30.1434C101.688 30.0849 101.69 30.0248 101.704 29.9669C101.718 29.9091 101.743 29.8548 101.78 29.8076C101.813 29.7583 101.856 29.7165 101.907 29.6851C101.957 29.6536 102.014 29.6331 102.073 29.6248L103.493 29.391Z" fill="#47A992"/>
<g opacity="0.2">
<path d="M101.299 20.1032C101.811 20.0211 102.332 20.011 102.847 20.0734C103.338 20.1318 103.816 20.2757 104.258 20.4985C104.679 20.7169 105.05 21.021 105.346 21.3911C105.613 21.7534 105.8 22.1676 105.897 22.6069C105.994 23.0462 105.997 23.5009 105.907 23.9416C105.826 24.2804 105.696 24.6055 105.52 24.9065C105.351 25.1992 105.155 25.4753 104.934 25.7311C104.717 25.9862 104.509 26.2285 104.317 26.4623C104.13 26.6801 103.964 26.9149 103.82 27.1636C103.685 27.3817 103.617 27.6343 103.624 27.8905C103.621 28.0103 103.587 28.1272 103.527 28.2306C103.496 28.2782 103.455 28.3188 103.408 28.3496C103.36 28.3804 103.307 28.4007 103.25 28.4091L101.975 28.6131C101.916 28.624 101.854 28.6228 101.795 28.6096C101.736 28.5965 101.68 28.5717 101.631 28.5366C101.581 28.5051 101.539 28.462 101.508 28.411C101.478 28.36 101.46 28.3025 101.457 28.2433C101.403 27.8478 101.432 27.4455 101.542 27.0616C101.642 26.7218 101.784 26.3962 101.967 26.0925C102.145 25.801 102.35 25.5264 102.579 25.2721C102.804 25.017 103.004 24.779 103.199 24.5494C103.374 24.3444 103.525 24.1206 103.65 23.8821C103.761 23.6768 103.801 23.4409 103.765 23.2105C103.733 23.0077 103.652 22.8156 103.53 22.6506C103.408 22.4855 103.248 22.3524 103.063 22.2625C102.606 22.0418 102.089 21.979 101.593 22.084C101.143 22.1497 100.725 22.3529 100.395 22.6657C100.066 22.9785 99.8411 23.3855 99.7521 23.8311C99.7272 23.9382 99.684 24.0403 99.6245 24.1329C99.5487 24.2136 99.4458 24.2635 99.3355 24.2731L97.9923 24.4899C97.8978 24.508 97.8001 24.4881 97.7202 24.4347C97.6793 24.4065 97.6448 24.37 97.6192 24.3275C97.5935 24.285 97.5772 24.2374 97.5714 24.1881C97.5315 23.7663 97.5972 23.3412 97.7627 22.9512C97.9308 22.4973 98.1784 22.077 98.4938 21.7099C98.8396 21.308 99.2471 20.9637 99.7011 20.6898C100.191 20.3927 100.734 20.1935 101.299 20.1032ZM103.493 29.391C103.551 29.3817 103.611 29.3841 103.669 29.398C103.726 29.4118 103.781 29.4369 103.829 29.4718C103.879 29.5047 103.921 29.5479 103.953 29.5984C103.986 29.649 104.007 29.7058 104.016 29.7651L104.254 31.2231C104.272 31.3414 104.243 31.4621 104.173 31.5592C104.103 31.6563 103.998 31.7219 103.88 31.7417L102.456 31.9755C102.337 31.9938 102.217 31.9647 102.12 31.8947C102.07 31.8614 102.029 31.818 101.997 31.7675C101.966 31.717 101.945 31.6604 101.937 31.6014L101.699 30.1434C101.688 30.0849 101.69 30.0248 101.704 29.9669C101.718 29.9091 101.743 29.8548 101.78 29.8076C101.813 29.7583 101.856 29.7165 101.907 29.6851C101.957 29.6536 102.014 29.6331 102.073 29.6248L103.493 29.391Z" fill="black"/>
</g>
<path d="M113.321 22.3943C113.379 22.4346 113.428 22.4863 113.465 22.5462C113.502 22.6062 113.527 22.6731 113.537 22.7429C113.551 22.812 113.55 22.8832 113.535 22.952C113.519 23.0208 113.49 23.0856 113.448 23.1424L112.436 24.5664C112.396 24.6244 112.344 24.6735 112.285 24.7108C112.225 24.7481 112.158 24.7727 112.088 24.7832C112.019 24.7968 111.947 24.7958 111.879 24.7804C111.81 24.7651 111.745 24.7356 111.688 24.694L110.294 23.7035C110.236 23.6638 110.187 23.6122 110.15 23.5521C110.114 23.492 110.09 23.4248 110.082 23.355C110.068 23.2858 110.069 23.2146 110.084 23.1458C110.1 23.0771 110.129 23.0122 110.171 22.9554L111.195 21.5314C111.278 21.416 111.403 21.3379 111.543 21.314C111.683 21.2901 111.827 21.3224 111.943 21.4039L113.321 22.3943ZM119.204 12.7494C119.712 13.1057 120.165 13.5354 120.547 14.0246C120.92 14.4796 121.208 14.998 121.397 15.5549C121.573 16.0885 121.633 16.654 121.571 17.2127C121.499 17.8084 121.274 18.3753 120.917 18.8577C120.651 19.2477 120.31 19.5803 119.913 19.8354C119.564 20.0543 119.185 20.2204 118.787 20.3285C118.4 20.4297 118.004 20.498 117.605 20.5325L116.475 20.6345C116.136 20.6616 115.8 20.7199 115.471 20.8088C115.169 20.8775 114.891 21.0308 114.672 21.2509C114.573 21.3514 114.448 21.4221 114.311 21.4549C114.246 21.4736 114.177 21.4764 114.11 21.4631C114.044 21.4498 113.981 21.4208 113.928 21.3784L112.696 20.5027C112.578 20.4186 112.497 20.2922 112.47 20.1499C112.455 20.081 112.455 20.0093 112.472 19.9406C112.489 19.8719 112.522 19.8082 112.568 19.7546C112.856 19.3809 113.216 19.0687 113.627 18.8364C113.996 18.6346 114.391 18.4817 114.8 18.3816C115.195 18.2858 115.597 18.2246 116.003 18.1988C116.402 18.1733 116.776 18.1436 117.125 18.1096C117.444 18.0814 117.759 18.0187 118.064 17.9225C118.332 17.8336 118.562 17.6587 118.719 17.4252C118.861 17.228 118.953 16.9995 118.988 16.7589C119.023 16.5184 118.999 16.273 118.919 16.0437C118.718 15.4772 118.333 14.994 117.826 14.6707C116.908 14.0161 115.906 13.9949 114.821 14.607C114.712 14.6765 114.591 14.7255 114.464 14.7515C114.398 14.7561 114.332 14.7476 114.269 14.7264C114.206 14.7052 114.148 14.6719 114.098 14.6282L112.789 13.6973C112.742 13.6658 112.701 13.6251 112.67 13.5777C112.638 13.5302 112.617 13.4769 112.606 13.421C112.596 13.3632 112.598 13.3038 112.612 13.2468C112.626 13.1897 112.652 13.1361 112.687 13.0894C112.996 12.6937 113.398 12.3798 113.856 12.1755C114.377 11.9395 114.935 11.7957 115.505 11.7505C116.133 11.698 116.765 11.7483 117.376 11.8992C118.036 12.0582 118.657 12.3472 119.204 12.7494Z" fill="#47A992"/>
<g opacity="0.6">
<path d="M113.321 22.3943C113.379 22.4346 113.428 22.4863 113.465 22.5462C113.502 22.6062 113.527 22.6731 113.537 22.7429C113.551 22.812 113.55 22.8832 113.535 22.952C113.519 23.0208 113.49 23.0856 113.448 23.1424L112.436 24.5664C112.396 24.6244 112.344 24.6735 112.285 24.7108C112.225 24.7481 112.158 24.7727 112.088 24.7832C112.019 24.7968 111.947 24.7958 111.879 24.7804C111.81 24.7651 111.745 24.7356 111.688 24.694L110.294 23.7035C110.236 23.6638 110.187 23.6122 110.15 23.5521C110.114 23.492 110.09 23.4248 110.082 23.355C110.068 23.2858 110.069 23.2146 110.084 23.1458C110.1 23.0771 110.129 23.0122 110.171 22.9554L111.195 21.5314C111.278 21.416 111.403 21.3379 111.543 21.314C111.683 21.2901 111.827 21.3224 111.943 21.4039L113.321 22.3943ZM119.204 12.7494C119.712 13.1057 120.165 13.5354 120.547 14.0246C120.92 14.4796 121.208 14.998 121.397 15.5549C121.573 16.0885 121.633 16.654 121.571 17.2127C121.499 17.8084 121.274 18.3753 120.917 18.8577C120.651 19.2477 120.31 19.5803 119.913 19.8354C119.564 20.0543 119.185 20.2204 118.787 20.3285C118.4 20.4297 118.004 20.498 117.605 20.5325L116.475 20.6345C116.136 20.6616 115.8 20.7199 115.471 20.8088C115.169 20.8775 114.891 21.0308 114.672 21.2509C114.573 21.3514 114.448 21.4221 114.311 21.4549C114.246 21.4736 114.177 21.4764 114.11 21.4631C114.044 21.4498 113.981 21.4208 113.928 21.3784L112.696 20.5027C112.578 20.4186 112.497 20.2922 112.47 20.1499C112.455 20.081 112.455 20.0093 112.472 19.9406C112.489 19.8719 112.522 19.8082 112.568 19.7546C112.856 19.3809 113.216 19.0687 113.627 18.8364C113.996 18.6346 114.391 18.4817 114.8 18.3816C115.195 18.2858 115.597 18.2246 116.003 18.1988C116.402 18.1733 116.776 18.1436 117.125 18.1096C117.444 18.0814 117.759 18.0187 118.064 17.9225C118.332 17.8336 118.562 17.6587 118.719 17.4252C118.861 17.228 118.953 16.9995 118.988 16.7589C119.023 16.5184 118.999 16.273 118.919 16.0437C118.718 15.4772 118.333 14.994 117.826 14.6707C116.908 14.0161 115.906 13.9949 114.821 14.607C114.712 14.6765 114.591 14.7255 114.464 14.7515C114.398 14.7561 114.332 14.7476 114.269 14.7264C114.206 14.7052 114.148 14.6719 114.098 14.6282L112.789 13.6973C112.742 13.6658 112.701 13.6251 112.67 13.5777C112.638 13.5302 112.617 13.4769 112.606 13.421C112.596 13.3632 112.598 13.3038 112.612 13.2468C112.626 13.1897 112.652 13.1361 112.687 13.0894C112.996 12.6937 113.398 12.3798 113.856 12.1755C114.377 11.9395 114.935 11.7957 115.505 11.7505C116.133 11.698 116.765 11.7483 117.376 11.8992C118.036 12.0582 118.657 12.3472 119.204 12.7494Z" fill="#45474B"/>
</g>
<path d="M81.6651 60.0219H66.5623V23.4315C66.5623 20.2535 67.8247 17.2056 70.0719 14.9584C72.3192 12.7111 75.367 11.4487 78.5451 11.4487H79.9393C83.1174 11.4487 86.1653 12.7111 88.4125 14.9584C90.6597 17.2056 91.9222 20.2535 91.9222 23.4315V49.7861C91.9165 52.5028 90.8334 55.1062 88.9105 57.0252C86.9875 58.9442 84.3818 60.0219 81.6651 60.0219Z" fill="#263238"/>
<path d="M65.0915 148.11C64.8243 149.626 64.6822 151.161 64.6664 152.701C64.6111 155.489 64.101 156.48 64.033 158.767C63.9523 161.381 64.4071 162.358 65.4655 163.829C66.524 165.3 69.2912 166.63 70.4899 164.148C71.6886 161.666 71.5143 160.038 71.136 157.474C70.7492 154.822 70.7109 153.355 70.4729 151.336C70.2774 149.555 70.0478 148.199 70.0478 148.199L65.0915 148.11Z" fill="#263238"/>
<path d="M73.0063 129.589L63.8247 129.424C63.9607 135.553 64.9342 142.359 65.0999 148.127C65.1339 149.211 65.0744 156.539 65.4825 158.754C66.0989 162.103 70.069 161.649 70.2816 159.646C70.4941 157.644 70.0265 149.088 70.0393 148.203C70.001 144.514 71.7396 138.286 72.6365 131.664C72.6747 131.345 72.9638 129.908 73.0063 129.589Z" fill="#FFA8A7"/>
<path d="M84.8025 143.341C84.8025 143.341 84.4412 143.145 84.3775 143.532C84.2882 143.991 84.1522 144.939 83.9524 145.696C83.6888 146.746 83.4678 148.476 83.6251 149.334C83.7824 150.193 85.7802 151.29 87.0767 151.689C88.6745 152.182 90.1317 153.049 91.3274 154.218C92.6026 155.426 95.3784 156.565 97.2785 156.552C99.5101 156.552 101.066 155.808 101.801 154.614C102.537 153.419 101.13 153.275 98.5792 151.638L96.6026 150.363C92.5601 147.723 91.0766 146.312 89.9417 143.672L84.8025 143.341Z" fill="#263238"/>
<path d="M89.9756 141.704C89.9076 139.808 91.2168 123.694 91.2168 123.694L82.4985 127.668C84.3646 138.814 84.7642 141.445 84.7939 143.268C84.7557 143.421 84.7399 143.579 84.7472 143.736C84.7472 145.9 87.1999 147.069 89.1042 148.514C90.7231 149.782 92.4481 150.908 94.2603 151.88C95.6461 152.573 98.4601 152.637 98.8086 151.749C96.4877 149.976 93.1126 147.324 91.2678 145.3C90.3667 144.348 90.0436 143.604 89.9756 141.704Z" fill="#FFA8A7"/>
<path d="M67.5871 69.7773C64.2375 77.1268 64.2375 82.8143 64.7943 92.1957C65.2874 100.803 66.1078 108.391 66.1078 108.391C65.9803 109.917 63.8592 112.897 63.5829 119.647C63.3278 125.955 64.0079 133.976 64.0079 133.976C64.0079 133.976 68.773 136.616 72.2969 133.951C72.2969 133.951 75.6975 117.717 76.6921 109.819C77.5423 102.929 79.0726 94.1256 79.0726 94.1256L82.2904 109.773C81.5959 111.993 81.0924 114.268 80.7856 116.574C80.335 121.22 82.9365 130.342 82.9365 130.342C82.9365 130.342 87.8588 131.808 90.8641 129.143C90.8641 129.143 91.9863 114.312 92.4071 108.718C92.9682 101.224 91.7865 80.9398 90.8641 70.1981L67.5871 69.7773Z" fill="#455A64"/>
<path d="M79.0806 94.1128L80.4025 82.3213C80.4025 82.3213 86.3281 81.5306 89.0146 79.0057C88.2457 80.2087 87.2213 81.2276 86.0143 81.9902C84.8073 82.7528 83.4472 83.2402 82.0306 83.418L80.1177 94.3891L82.2899 109.773L79.0806 94.1128Z" fill="#263238"/>
<path d="M103.076 66.8783C103.321 64.7265 103.429 62.5614 103.399 60.3959C103.267 58.5256 102.932 58.2196 100.317 54.9082C96.7892 50.4322 93.7754 46.4068 90.5874 42.4068C88.309 39.5503 85.9116 39.1125 83.5821 39.24C81.9499 39.3293 85.1379 47.1804 86.7405 51.8264L95.8923 61.6797C96.1758 62.0685 96.306 62.5483 96.2579 63.0272L95.7053 71.4096L98.447 75.0823C98.447 75.0823 102.6 71.5031 103.076 66.8783Z" fill="#FFA8A7"/>
<path d="M74.7575 39.495C72.9849 39.6183 69.7629 39.9201 69.7629 39.9201C67.9053 40.9573 67.4334 41.8117 67.0891 44.2771C66.9404 45.3313 67.799 48.1326 68.5344 52.1155L69.9286 59.499L69.7756 63.1632C69.053 65.3991 67.4164 68.1748 65.9712 72.2683C73.0699 76.2299 79.021 76.3787 84.4194 75.6688C88.5341 75.1375 90.7147 74.1428 91.4416 73.1567C91.2886 69.1142 91.0166 66.6148 90.9315 62.3895C90.9018 60.617 91.008 58.8232 91.0803 56.7828C93.839 54.5129 93.873 50.7383 92.3555 48.2813C88.8572 42.6151 85.4523 39.0487 83.1994 39.2315L74.7575 39.495Z" fill="#47A992"/>
<path opacity="0.6" d="M74.7575 39.495C72.9849 39.6183 69.7629 39.9201 69.7629 39.9201C67.9053 40.9573 67.4334 41.8117 67.0891 44.2771C66.9404 45.3313 67.799 48.1326 68.5344 52.1155L69.9286 59.499L69.7756 63.1632C69.053 65.3991 67.4164 68.1748 65.9712 72.2683C73.0699 76.2299 79.021 76.3787 84.4194 75.6688C88.5341 75.1375 90.7147 74.1428 91.4416 73.1567C91.2886 69.1142 91.0166 66.6148 90.9315 62.3895C90.9018 60.617 91.008 58.8232 91.0803 56.7828C93.839 54.5129 93.873 50.7383 92.3555 48.2813C88.8572 42.6151 85.4523 39.0487 83.1994 39.2315L74.7575 39.495Z" fill="#45474B"/>
<path opacity="0.1" d="M85.5841 56.8381C85.5841 56.8381 82.345 59.3545 78.6426 58.041C77.6029 57.7134 76.6654 57.123 75.9207 56.327C75.1761 55.5309 74.6495 54.5562 74.3919 53.497C74.3919 53.497 74.0008 57.7265 78.6639 59.1675C83.1824 60.5575 85.5841 56.8381 85.5841 56.8381Z" fill="black"/>
<path d="M89.9799 27.8863C89.8397 34.0243 87.8546 35.5376 86.8514 35.9627C85.8482 36.3878 83.9269 36.1327 82.0566 35.8224V39.5291C82.0566 39.5291 84.2159 41.7904 84.0544 43.478C83.8929 45.1655 80.6538 45.3568 78.2394 43.7033C76.9072 42.7882 75.7022 41.7004 74.656 40.4685C74.4551 40.2308 74.3452 39.9295 74.3457 39.6183V30.9468C74.3457 30.9468 73.3213 32.0307 71.5105 30.7895C71.1197 30.5402 70.7852 30.2123 70.5281 29.8266C70.2709 29.441 70.0968 29.006 70.0169 28.5495C69.9369 28.0929 69.9528 27.6247 70.0636 27.1747C70.1744 26.7246 70.3776 26.3025 70.6603 25.9352C71.451 25.0043 73.4573 24.9405 74.418 26.3603C74.9621 27.4187 75.0343 28.4856 75.6422 28.0606C77.2575 26.8958 76.3903 24.2349 78.3414 22.9597C78.9816 22.6255 79.6467 22.3413 80.3308 22.1095C83.8121 20.9066 86.8301 19.8949 87.557 17.5145C88.9257 18.2966 90.15 20.6473 89.9799 27.8863Z" fill="#FFA8A7"/>
<path d="M83.115 33.3697C83.5611 33.3697 83.9227 33.0081 83.9227 32.5621C83.9227 32.116 83.5611 31.7544 83.115 31.7544C82.669 31.7544 82.3074 32.116 82.3074 32.5621C82.3074 33.0081 82.669 33.3697 83.115 33.3697Z" fill="#B16668"/>
<path d="M82.5794 26.9553C82.5792 27.1216 82.5303 27.2842 82.4386 27.4229C82.3469 27.5616 82.2166 27.6705 82.0637 27.7359C81.9108 27.8013 81.7421 27.8204 81.5785 27.7909C81.4148 27.7614 81.2634 27.6846 81.143 27.5699C81.0226 27.4552 80.9384 27.3077 80.901 27.1457C80.8635 26.9837 80.8744 26.8142 80.9323 26.6583C80.9902 26.5025 81.0925 26.367 81.2266 26.2686C81.3607 26.1703 81.5207 26.1135 81.6868 26.1052C81.802 26.0994 81.9171 26.1171 82.0252 26.1573C82.1333 26.1974 82.2321 26.2591 82.3156 26.3386C82.3991 26.4181 82.4656 26.5138 82.5109 26.6198C82.5563 26.7259 82.5796 26.84 82.5794 26.9553Z" fill="#263238"/>
<path d="M89.0187 27.0404C89.0274 27.1444 89.0153 27.2491 88.9831 27.3483C88.9509 27.4476 88.8993 27.5395 88.8312 27.6186C88.7632 27.6978 88.6801 27.7626 88.5867 27.8092C88.4934 27.8559 88.3917 27.8835 88.2875 27.8905C88.1825 27.9002 88.0765 27.8875 87.9768 27.8531C87.877 27.8187 87.7857 27.7635 87.7089 27.6911C87.6322 27.6188 87.5716 27.5309 87.5314 27.4334C87.4912 27.3358 87.4722 27.2308 87.4756 27.1254C87.4647 27.0206 87.4752 26.9147 87.5066 26.8142C87.538 26.7136 87.5896 26.6205 87.6583 26.5406C87.7269 26.4607 87.8112 26.3957 87.9059 26.3495C88.0005 26.3033 88.1037 26.277 88.2089 26.272C88.3141 26.2671 88.4192 26.2837 88.5178 26.3209C88.6164 26.358 88.7063 26.4149 88.7822 26.488C88.858 26.5611 88.9181 26.649 88.9587 26.7461C88.9994 26.8433 89.0198 26.9478 89.0187 27.0531V27.0404Z" fill="#263238"/>
<path d="M81.487 29.1403C80.7538 29.1403 80.0506 28.8493 79.5317 28.3313C79.0129 27.8132 78.7209 27.1104 78.7197 26.3773C78.7197 24.4984 80.6581 24.4984 81.487 24.4984C82.3159 24.4984 84.2499 24.4984 84.2499 26.3773C84.2488 27.1097 83.9574 27.8118 83.4394 28.3298C82.9215 28.8477 82.2194 29.1391 81.487 29.1403ZM81.487 24.932C79.7867 24.932 79.1576 25.3571 79.1576 26.3773C79.1576 26.9973 79.4039 27.592 79.8423 28.0304C80.2807 28.4689 80.8754 28.7152 81.4955 28.7152C82.1155 28.7152 82.7102 28.4689 83.1486 28.0304C83.5871 27.592 83.8334 26.9973 83.8334 26.3773C83.8164 25.3358 83.1617 24.932 81.487 24.932Z" fill="#455A64"/>
<path d="M88.5043 29.1403C87.7711 29.1403 87.0679 28.8493 86.5491 28.3313C86.0302 27.8132 85.7382 27.1104 85.7371 26.3773C85.7371 24.4984 87.6754 24.4984 88.5043 24.4984C89.3332 24.4984 91.2673 24.4984 91.2673 26.3773C91.2661 27.1097 90.9747 27.8118 90.4568 28.3298C89.9389 28.8477 89.2367 29.1391 88.5043 29.1403ZM88.5043 24.932C86.8295 24.932 86.1749 25.3571 86.1749 26.3773C86.1749 26.9973 86.4212 27.592 86.8596 28.0304C87.2981 28.4689 87.8927 28.7152 88.5128 28.7152C89.1328 28.7152 89.7275 28.4689 90.1659 28.0304C90.6044 27.592 90.8507 26.9973 90.8507 26.3773C90.8337 25.3358 90.1791 24.932 88.5043 24.932Z" fill="#455A64"/>
<path d="M84.6794 25.4846L84.8155 30.6493L87.5317 29.8076L84.6794 25.4846Z" fill="#F28F8F"/>
<path d="M82.0519 35.8352C80.0795 35.5759 76.0201 34.4112 75.3867 32.8044C75.6416 33.6165 76.1385 34.3313 76.8107 34.8533C78.0222 35.8947 82.0519 37.0637 82.0519 37.0637V35.8352Z" fill="#F28F8F"/>
<path d="M82.15 22.9767L80.3477 24.0776C80.2057 23.8302 80.1644 23.5376 80.2325 23.2605C80.3006 22.9834 80.4728 22.7433 80.7133 22.5899C80.8322 22.5177 80.9645 22.4704 81.1022 22.4508C81.2399 22.4312 81.3801 22.4398 81.5144 22.476C81.6487 22.5121 81.7743 22.5751 81.8835 22.6612C81.9928 22.7472 82.0834 22.8546 82.15 22.9767Z" fill="#263238"/>
<path d="M89.4827 24.2009L87.4763 23.4995C87.5152 23.3665 87.5808 23.2429 87.6691 23.1362C87.7575 23.0295 87.8668 22.9421 87.9902 22.8792C88.1136 22.8163 88.2486 22.7793 88.3868 22.7704C88.5251 22.7616 88.6636 22.7812 88.7941 22.8279C89.0631 22.9246 89.2847 23.1211 89.4129 23.3766C89.5411 23.6322 89.5661 23.9274 89.4827 24.2009Z" fill="#263238"/>
<path d="M84.0332 26.5983C84.0044 26.5983 83.9759 26.5925 83.9493 26.5814C83.9227 26.5702 83.8986 26.5538 83.8784 26.5333C83.8582 26.5127 83.8424 26.4883 83.8317 26.4615C83.8211 26.4347 83.8159 26.406 83.8164 26.3772C83.8164 26.0244 84.5136 25.7949 85.1427 25.7949C85.7718 25.7949 86.1756 26.0244 86.1756 26.3772C86.1624 26.4234 86.1345 26.464 86.0962 26.493C86.0578 26.5219 86.0111 26.5375 85.9631 26.5375C85.915 26.5375 85.8683 26.5219 85.83 26.493C85.7916 26.464 85.7637 26.4234 85.7505 26.3772C85.7505 26.3347 85.5338 26.2284 85.1554 26.2284C84.8508 26.222 84.5478 26.2739 84.2628 26.3815C84.2628 26.411 84.2568 26.4403 84.2451 26.4675C84.2335 26.4946 84.2163 26.5191 84.1948 26.5394C84.1733 26.5598 84.1479 26.5754 84.1201 26.5856C84.0923 26.5957 84.0628 26.6 84.0332 26.5983Z" fill="#455A64"/>
<path d="M78.9449 26.4113H78.9194L74.0608 25.9862C73.8337 25.7612 73.5633 25.5847 73.2659 25.4676L78.9704 25.9947C79.0276 26.0021 79.0796 26.0316 79.1153 26.0769C79.151 26.1222 79.1677 26.1796 79.1616 26.237C79.1517 26.2868 79.1245 26.3316 79.0849 26.3635C79.0453 26.3953 78.9957 26.4122 78.9449 26.4113Z" fill="#455A64"/>
<path d="M58.9957 31.4781C60.5855 29.3528 61.6694 27.7502 63.1189 25.9522C63.9436 24.9192 64.4707 24.1796 65.2443 23.1212C65.7884 22.3901 66.0945 21.7737 66.7151 21.5484C67.3856 21.2737 67.9898 20.8592 68.4876 20.3327C68.7936 19.9942 69.0776 19.6364 69.3378 19.2615C70.2488 18.0352 71.331 16.9458 72.5513 16.0267C73.8265 15.066 75.2505 14.3264 76.564 13.4125C77.3462 12.8641 78.1836 11.9545 77.2314 11.1043C76.9394 10.8584 76.5899 10.6902 76.2155 10.6155C73.8988 10.1139 71.884 10.9088 69.6183 11.4869C68.6342 11.7325 67.6717 12.0581 66.7406 12.4603C66.2825 12.6415 65.8531 12.8877 65.4653 13.1915C64.9233 13.738 64.479 14.3735 64.1519 15.0703C63.1614 16.8386 61.0361 18.4199 59.5483 19.8184C57.8098 21.4549 56.254 22.9554 54.2689 24.7577C52.4836 26.3858 50.7365 27.882 49.1 29.6588C47.744 31.1253 48.2498 32.273 48.4284 32.6726C49.5336 34.9425 50.7705 35.7586 52.254 37.1656C54.8045 39.6013 63.6248 46.6108 66.545 48.9274C67.1725 49.4202 67.6652 50.0636 67.9775 50.7978L68.5386 52.0942C71.8712 52.7063 74.0943 47.7032 71.3356 41.6799C70.8788 40.7059 70.1809 39.8646 69.308 39.2357C65.8224 36.698 58.9957 31.4781 58.9957 31.4781Z" fill="#FFA8A7"/>
<path d="M58.996 31.4781C57.9353 32.783 56.5217 33.7554 54.9238 34.2794C54.9238 34.2794 57.0492 34.8235 59.961 32.2093L58.996 31.4781Z" fill="#F28F8F"/>
<path d="M102.209 62.4448L101.665 61.9772C101.583 61.9236 101.491 61.89 101.394 61.8789C101.297 61.8678 101.199 61.8796 101.108 61.9134L95.2035 63.5202C94.906 63.6194 94.6336 63.7816 94.4047 63.9959C94.1758 64.2101 93.9958 64.4712 93.8772 64.7614L89.6265 77.0163C89.5753 77.1162 89.5552 77.2291 89.5689 77.3405C89.5825 77.4519 89.6292 77.5566 89.703 77.6412L90.2641 78.1258C90.3458 78.1821 90.4399 78.2177 90.5384 78.2295C90.6369 78.2414 90.7368 78.2291 90.8294 78.1938L96.7422 76.587C97.0396 76.4878 97.3121 76.3256 97.541 76.1114C97.7699 75.8971 97.9498 75.636 98.0685 75.3458C98.9186 72.9356 101.469 65.5011 102.319 63.0909C102.421 62.7891 102.37 62.5596 102.209 62.4448Z" fill="#455A64"/>
<path d="M90.184 77.4881L94.4347 65.2333C94.5529 64.9432 94.7327 64.6824 94.9617 64.4688C95.1907 64.2552 95.4634 64.094 95.761 63.9963L101.661 62.3895C102.209 62.2407 102.511 62.5553 102.316 63.0909C101.465 65.5011 98.915 72.9356 98.0649 75.3458C97.9462 75.636 97.7663 75.8971 97.5374 76.1114C97.3085 76.3256 97.036 76.4878 96.7386 76.587L90.8386 78.2108C90.2945 78.3383 90.0012 78.0237 90.184 77.4881Z" fill="#47A992"/>
<path d="M95.1185 64.3364C94.8116 64.5689 94.5736 64.8803 94.4299 65.2375L90.1791 77.4882C90.1305 77.5855 90.1102 77.6945 90.1208 77.8028C90.1313 77.9111 90.1721 78.0142 90.2387 78.1003L89.7116 77.6497C89.636 77.5662 89.5878 77.4616 89.5734 77.3499C89.559 77.2382 89.579 77.1248 89.6308 77.0248L93.8815 64.77C94.016 64.4368 94.2341 64.144 94.5149 63.9198L95.1185 64.3364Z" fill="#37474F"/>
<path d="M100.59 68.0303C100.165 69.2757 98.6896 70.1089 96.2497 70.687C93.8097 71.2651 92.4623 73.8538 92.8491 74.6402C93.2359 75.4266 97.1806 76.1619 98.7576 75.9366C100.335 75.7114 101.916 73.433 102.396 72.7273C102.877 72.0217 103.429 67.0994 102.923 66.4235C102.417 65.7476 101.351 65.8539 101.351 65.8539L100.59 68.0303Z" fill="#F28F8F"/>
</svg>
