<svg width="24" height="23" viewBox="0 0 24 23" fill="none" xmlns="http://www.w3.org/2000/svg">
<path d="M19.2 0C20.473 0 21.6939 0.510161 22.5941 1.41825C23.4943 2.32635 24 3.55798 24 4.84222V14.5267C24 15.8109 23.4943 17.0425 22.5941 17.9506C21.6939 18.8587 20.473 19.3689 19.2 19.3689H13.5312L7.8168 22.8274C7.64471 22.9316 7.44946 22.9906 7.24893 22.999C7.0484 23.0073 6.84899 22.9648 6.66895 22.8753C6.48891 22.7859 6.334 22.6523 6.21839 22.4867C6.10278 22.3212 6.03017 22.1291 6.0072 21.928L6 21.79V19.3689H4.8C3.56851 19.3689 2.38413 18.8914 1.49183 18.0352C0.599526 17.179 0.0675747 16.0095 0.00600014 14.7688L0 14.5267V4.84222C0 3.55798 0.505713 2.32635 1.40589 1.41825C2.30606 0.510161 3.52696 0 4.8 0H19.2ZM14.4 10.895H7.2C6.88174 10.895 6.57652 11.0225 6.35147 11.2496C6.12643 11.4766 6 11.7845 6 12.1055C6 12.4266 6.12643 12.7345 6.35147 12.9615C6.57652 13.1886 6.88174 13.3161 7.2 13.3161H14.4C14.7183 13.3161 15.0235 13.1886 15.2485 12.9615C15.4736 12.7345 15.6 12.4266 15.6 12.1055C15.6 11.7845 15.4736 11.4766 15.2485 11.2496C15.0235 11.0225 14.7183 10.895 14.4 10.895ZM16.8 6.05277H7.2C6.88174 6.05277 6.57652 6.18032 6.35147 6.40734C6.12643 6.63436 6 6.94227 6 7.26333C6 7.58439 6.12643 7.8923 6.35147 8.11932C6.57652 8.34634 6.88174 8.47388 7.2 8.47388H16.8C17.1183 8.47388 17.4235 8.34634 17.6485 8.11932C17.8736 7.8923 18 7.58439 18 7.26333C18 6.94227 17.8736 6.63436 17.6485 6.40734C17.4235 6.18032 17.1183 6.05277 16.8 6.05277Z" fill="#45474B"/>
</svg>
