<svg width="23" height="23" viewBox="0 0 23 23" fill="none" xmlns="http://www.w3.org/2000/svg">
<path fill-rule="evenodd" clip-rule="evenodd" d="M11.4786 2.46507C10.7919 2.45266 10.1094 2.57581 9.47027 2.82746C8.83115 3.0791 8.24793 3.45431 7.75398 3.9316C7.26004 4.4089 6.86507 4.97891 6.59167 5.60902C6.31828 6.23913 6.17183 6.91696 6.16071 7.60373V14.786C6.16071 15.2217 5.98763 15.6396 5.67953 15.9477C5.37144 16.2557 4.95357 16.4288 4.51786 16.4288H2.46429C1.81072 16.4288 1.18392 16.1692 0.721773 15.7071C0.259629 15.2449 0 14.6182 0 13.9646V10.679C0 10.0255 0.259629 9.39872 0.721773 8.93659C1.18392 8.47447 1.81072 8.21485 2.46429 8.21485H3.69643V7.57416C3.71142 6.56448 3.92517 5.56765 4.32547 4.6406C4.72577 3.71354 5.30478 2.87441 6.02943 2.17115C6.75408 1.46788 7.61018 0.914249 8.54883 0.541869C9.48748 0.16949 10.4903 -0.014342 11.5 0.000872839C12.5097 -0.014342 13.5125 0.16949 14.4512 0.541869C15.3898 0.914249 16.2459 1.46788 16.9706 2.17115C17.6952 2.87441 18.2742 3.71354 18.6745 4.6406C19.0748 5.56765 19.2886 6.56448 19.3036 7.57416V8.21485H20.5357C21.1893 8.21485 21.8161 8.47447 22.2782 8.93659C22.7404 9.39872 23 10.0255 23 10.679V13.9646C23 14.6182 22.7404 15.2449 22.2782 15.7071C21.8161 16.1692 21.1893 16.4288 20.5357 16.4288H19.3036V17.2502C19.3038 18.3603 18.8952 19.4317 18.1559 20.2598C17.4165 21.0879 16.3981 21.6148 15.295 21.74C15.0808 22.1224 14.7684 22.4408 14.3901 22.6623C14.0118 22.8838 13.5812 23.0004 13.1429 23H10.6786C10.025 23 9.3982 22.7404 8.93606 22.2783C8.47392 21.8161 8.21429 21.1894 8.21429 20.5358C8.21429 19.8823 8.47392 19.2555 8.93606 18.7934C9.3982 18.3312 10.025 18.0716 10.6786 18.0716H13.1429C14.0333 18.0716 14.8136 18.5431 15.2457 19.2511C15.6985 19.1471 16.1027 18.8925 16.3921 18.5291C16.6816 18.1657 16.8392 17.7148 16.8393 17.2502V7.60208C16.828 6.91178 16.68 6.23056 16.4039 5.5978C16.1277 4.96503 15.7289 4.39329 15.2304 3.9156C14.7319 3.43792 14.1437 3.06377 13.4997 2.8148C12.8558 2.56582 12.1688 2.44695 11.4786 2.46507Z" fill="#45474B"/>
</svg>
