<svg width="21" height="23" viewBox="0 0 21 23" fill="none" xmlns="http://www.w3.org/2000/svg">
<path d="M12.1917 0.641032C11.7183 0.227049 11.1191 0 10.5 0C9.8809 0 9.28173 0.227049 8.80833 0.641032L0.933333 7.53515C0.641036 7.79076 0.406069 8.10953 0.244857 8.46918C0.0836453 8.82882 7.90169e-05 9.22066 0 9.6173V20.8815C0 22.0509 0.914667 23 2.04167 23H5.54167C6.08315 23 6.60246 22.7768 6.98534 22.3795C7.36823 21.9822 7.58333 21.4434 7.58333 20.8815V16.0357C7.58333 15.2125 8.21567 14.5443 9.00317 14.5225H11.9968C12.3769 14.5329 12.738 14.6969 13.0032 14.9796C13.2685 15.2622 13.4168 15.6412 13.4167 16.0357V20.8815C13.4167 22.0509 14.3313 23 15.4583 23H18.9583C19.4998 23 20.0191 22.7768 20.402 22.3795C20.7849 21.9822 21 21.4434 21 20.8815V9.61609C20.9999 9.21945 20.9164 8.82761 20.7551 8.46797C20.5939 8.10832 20.359 7.78955 20.0667 7.53394L12.1917 0.641032Z" fill="#45474B"/>
</svg>
